<?xml version="1.0" encoding="utf-8"?><svg viewBox="0 0 24 24" xmlns="http://www.w3.org/2000/svg" xmlns:xlink="http://www.w3.org/1999/xlink"><style>:root>svg{display:none}:root>svg:target{display:block}</style><svg fill="none" viewBox="0 0 24 24" id="burger-close" xmlns="http://www.w3.org/2000/svg"><rect x="4.575" y="2.954" width="24" height="3" rx="1.5" transform="rotate(45 4.575 2.954)" fill="currentColor"/><rect x="21.546" y="5.075" width="24" height="3" rx="1.5" transform="rotate(135 21.546 5.075)" fill="currentColor"/></svg><svg fill="none" viewBox="0 0 24 24" id="burger-open" xmlns="http://www.w3.org/2000/svg"><rect width="24" height="3" rx="1.5" fill="currentColor"/><rect y="21" width="24" height="3" rx="1.5" fill="currentColor"/><rect y="11" width="24" height="3" rx="1.5" fill="currentColor"/></svg><svg fill="none" viewBox="0 0 12 12" id="close" xmlns="http://www.w3.org/2000/svg"><path d="M6 0C2.682 0 0 2.682 0 6s2.682 6 6 6 6-2.682 6-6-2.682-6-6-6zm0 10.8A4.806 4.806 0 011.2 6c0-2.646 2.154-4.8 4.8-4.8s4.8 2.154 4.8 4.8-2.154 4.8-4.8 4.8zM8.154 3L6 5.154 3.846 3 3 3.846 5.154 6 3 8.154 3.846 9 6 6.846 8.154 9 9 8.154 6.846 6 9 3.846 8.154 3z" fill="currentColor"/></svg></svg>